# This file uses centimeters as units for non-parametric coordinates.

v -814.688370 -10.594230 946.514343
v -572.983505 -10.594260 946.514343
v -814.688370 -10.594230 -896.466919
v -572.983505 -10.594260 -896.466919
v -517.081009 -37.261280 946.514343
v -517.081009 -37.261280 -896.466919
vt 0.000301 0.001992
vt 0.122453 0.001992
vt 0.122453 0.998008
vt 0.000301 0.998008
vt 0.150704 0.001992
vt 0.150704 0.998008
vn 0.000000 1.000000 0.000000
vn 0.220718 0.975338 0.000000
vn 0.000000 1.000000 0.000000
vn 0.220718 0.975338 0.000000
vn 0.430549 0.902567 0.000000
vn 0.430549 0.902567 0.000000
s 1
f 1/1/1 2/2/2 3/4/3
f 3/4/3 2/2/2 4/3/4
f 4/3/4 2/2/2 6/6/5
f 6/6/5 2/2/2 5/5/6
v -814.688370 -10.594230 946.514343
v -572.983505 -10.594260 946.514343
v -814.688370 -10.594230 -896.466919
v -572.983505 -10.594260 -896.466919
v -517.081009 -37.261280 946.514343
v -517.081009 -37.261280 -896.466919
vt 0.000301 0.001992
vt 0.122453 0.001992
vt 0.122453 0.998008
vt 0.000301 0.998008
vt 0.150704 0.001992
vt 0.150704 0.998008
vn 0.000000 1.000000 0.000000
vn 0.220718 0.975338 0.000000
vn 0.000000 1.000000 0.000000
vn 0.220718 0.975338 0.000000
vn 0.430549 0.902567 0.000000
vn 0.430549 0.902567 0.000000
s 1
f 7/7/7 8/8/8 9/10/9
f 9/10/9 8/8/8 10/9/10
f 10/9/10 8/8/8 12/12/11
f 12/12/11 8/8/8 11/11/12
